<svg width="18" height="18" viewBox="0 0 18 18" fill="none" xmlns="http://www.w3.org/2000/svg">
<rect width="18" height="18" fill="#BCBCBC"/>
<path d="M6.41016 12.0801V13H1.89258V12.0801H6.41016ZM2.12109 4.46875V13H0.990234V4.46875H2.12109ZM5.8125 8.13672V9.05664H1.89258V8.13672H5.8125ZM6.35156 4.46875V5.39453H1.89258V4.46875H6.35156ZM10.1191 13H8.33789L8.34961 12.0801H10.1191C10.7285 12.0801 11.2363 11.9531 11.6426 11.6992C12.0488 11.4414 12.3535 11.082 12.5566 10.6211C12.7637 10.1562 12.8672 9.61328 12.8672 8.99219V8.4707C12.8672 7.98242 12.8086 7.54883 12.6914 7.16992C12.5742 6.78711 12.4023 6.46484 12.1758 6.20312C11.9492 5.9375 11.6719 5.73633 11.3438 5.59961C11.0195 5.46289 10.6465 5.39453 10.2246 5.39453H8.30273V4.46875H10.2246C10.7832 4.46875 11.293 4.5625 11.7539 4.75C12.2148 4.93359 12.6113 5.20117 12.9434 5.55273C13.2793 5.90039 13.5371 6.32227 13.7168 6.81836C13.8965 7.31055 13.9863 7.86523 13.9863 8.48242V8.99219C13.9863 9.60938 13.8965 10.166 13.7168 10.6621C13.5371 11.1543 13.2773 11.5742 12.9375 11.9219C12.6016 12.2695 12.1953 12.5371 11.7188 12.7246C11.2461 12.9082 10.7129 13 10.1191 13ZM8.94141 4.46875V13H7.81055V4.46875H8.94141ZM14.9414 12.4258C14.9414 12.2422 14.998 12.0879 15.1113 11.9629C15.2285 11.834 15.3965 11.7695 15.6152 11.7695C15.834 11.7695 16 11.834 16.1133 11.9629C16.2305 12.0879 16.2891 12.2422 16.2891 12.4258C16.2891 12.6055 16.2305 12.7578 16.1133 12.8828C16 13.0078 15.834 13.0703 15.6152 13.0703C15.3965 13.0703 15.2285 13.0078 15.1113 12.8828C14.998 12.7578 14.9414 12.6055 14.9414 12.4258Z" fill="#404040"/>
</svg>
